PathFileType	4	(X/Y/Z)	C:/Users/Carlo/Dropbox/Carlos/SARAH/CongressoMarcha2025/WorkshopOpenSim/C3D/Caso03/pyCGM2 Walking02.c3d.trc
DataRate	CameraRate	NumFrames	NumMarkers	Units	OrigDataRate	OrigDataStartFrame	OrigNumFrames
100.000000	100.000000	2	163	mm	100.000000	318	510
Frame#	Time	PELO			PELA			PELL			PELP			LFEO			LFEA			LFEL			LFEP			LTIO			LTIA			LTIL			LTIP			LFOO			LFOA			LFOL			LFOP			LTOO			LTOA			LTOL			LTOP			RFEO			RFEA			RFEL			RFEP			RTIO			RTIA			RTIL			RTIP			RFOO			RFOA			RFOL			RFOP			RTOO			RTOA			RTOL			RTOP			PELVIS_CGM_2.3O			PELVIS_CGM_2.3A			PELVIS_CGM_2.3L			PELVIS_CGM_2.3P			LFEMUR_CGM_2.3O			LFEMUR_CGM_2.3A			LFEMUR_CGM_2.3L			LFEMUR_CGM_2.3P			LTIBIA_CGM_2.3O			LTIBIA_CGM_2.3A			LTIBIA_CGM_2.3L			LTIBIA_CGM_2.3P			LFOOT_CGM_2.3O			LFOOT_CGM_2.3A			LFOOT_CGM_2.3L			LFOOT_CGM_2.3P			LTOES_CGM_2.3O			LTOES_CGM_2.3A			LTOES_CGM_2.3L			LTOES_CGM_2.3P			RFEMUR_CGM_2.3O			RFEMUR_CGM_2.3A			RFEMUR_CGM_2.3L			RFEMUR_CGM_2.3P			RTIBIA_CGM_2.3O			RTIBIA_CGM_2.3A			RTIBIA_CGM_2.3L			RTIBIA_CGM_2.3P			RFOOT_CGM_2.3O			RFOOT_CGM_2.3A			RFOOT_CGM_2.3L			RFOOT_CGM_2.3P			RTOES_CGM_2.3O			RTOES_CGM_2.3A			RTOES_CGM_2.3L			RTOES_CGM_2.3P			LASI			RASI			LPSI			RPSI			LTHI			LTHAP			LTHAD			LKNE			LTIB			LTIAP			LTIAD			LANK			LHEE			LTOE			RTHI			RTHAP			RTHAD			RKNE			RTIB			RTIAP			RTIAD			RANK			RHEE			RTOE			LHipAngles			LKneeAngles			LAbsAnkleAngle			LAnkleAngles			RHipAngles			RKneeAngles			RAnkleAngles			RAbsAnkleAngle			LPelvisAngles			RPelvisAngles			LFootProgressAngles			RFootProgressAngles			LHipAngles_CGM_2.3			LKneeAngles_CGM_2.3			LAnkleAngles_CGM_2.3			RHipAngles_CGM_2.3			RKneeAngles_CGM_2.3			RAnkleAngles_CGM_2.3			LFootProgressAngles_CGM_2.3			RFootProgressAngles_CGM_2.3			LPelvisAngles_CGM_2.3			RPelvisAngles_CGM_2.3			LHipPower			LKneePower			LAnklePower			RHipPower			RKneePower			RAnklePower			LHipPower_CGM_2.3			LKneePower_CGM_2.3			LAnklePower_CGM_2.3			RHipPower_CGM_2.3			RKneePower_CGM_2.3			RAnklePower_CGM_2.3			RGroundReactionForce			RNormalisedGRF			LAnkleForce			RAnkleForce			RKneeForce			LKneeForce			RHipForce			LHipForce			LHipForce_CGM_2.3			LKneeForce_CGM_2.3			LAnkleForce_CGM_2.3			RHipForce_CGM_2.3			RKneeForce_CGM_2.3			RAnkleForce_CGM_2.3			RGroundReactionMoment			LAnkleMoment			RAnkleMoment			RKneeMoment			LKneeMoment			RHipMoment			LHipMoment			LHipMoment_CGM_2.3			LKneeMoment_CGM_2.3			LAnkleMoment_CGM_2.3			RHipMoment_CGM_2.3			RKneeMoment_CGM_2.3			RAnkleMoment_CGM_2.3			LHJC_CGM_2.3			LKJC_CGM_2.3			RHJC_CGM_2.3			RKJC_CGM_2.3			LAJC_CGM_2.3			RAJC_CGM_2.3			
		X1	Y1	Z1	X2	Y2	Z2	X3	Y3	Z3	X4	Y4	Z4	X5	Y5	Z5	X6	Y6	Z6	X7	Y7	Z7	X8	Y8	Z8	X9	Y9	Z9	X10	Y10	Z10	X11	Y11	Z11	X12	Y12	Z12	X13	Y13	Z13	X14	Y14	Z14	X15	Y15	Z15	X16	Y16	Z16	X17	Y17	Z17	X18	Y18	Z18	X19	Y19	Z19	X20	Y20	Z20	X21	Y21	Z21	X22	Y22	Z22	X23	Y23	Z23	X24	Y24	Z24	X25	Y25	Z25	X26	Y26	Z26	X27	Y27	Z27	X28	Y28	Z28	X29	Y29	Z29	X30	Y30	Z30	X31	Y31	Z31	X32	Y32	Z32	X33	Y33	Z33	X34	Y34	Z34	X35	Y35	Z35	X36	Y36	Z36	X37	Y37	Z37	X38	Y38	Z38	X39	Y39	Z39	X40	Y40	Z40	X41	Y41	Z41	X42	Y42	Z42	X43	Y43	Z43	X44	Y44	Z44	X45	Y45	Z45	X46	Y46	Z46	X47	Y47	Z47	X48	Y48	Z48	X49	Y49	Z49	X50	Y50	Z50	X51	Y51	Z51	X52	Y52	Z52	X53	Y53	Z53	X54	Y54	Z54	X55	Y55	Z55	X56	Y56	Z56	X57	Y57	Z57	X58	Y58	Z58	X59	Y59	Z59	X60	Y60	Z60	X61	Y61	Z61	X62	Y62	Z62	X63	Y63	Z63	X64	Y64	Z64	X65	Y65	Z65	X66	Y66	Z66	X67	Y67	Z67	X68	Y68	Z68	X69	Y69	Z69	X70	Y70	Z70	X71	Y71	Z71	X72	Y72	Z72	X73	Y73	Z73	X74	Y74	Z74	X75	Y75	Z75	X76	Y76	Z76	X77	Y77	Z77	X78	Y78	Z78	X79	Y79	Z79	X80	Y80	Z80	X81	Y81	Z81	X82	Y82	Z82	X83	Y83	Z83	X84	Y84	Z84	X85	Y85	Z85	X86	Y86	Z86	X87	Y87	Z87	X88	Y88	Z88	X89	Y89	Z89	X90	Y90	Z90	X91	Y91	Z91	X92	Y92	Z92	X93	Y93	Z93	X94	Y94	Z94	X95	Y95	Z95	X96	Y96	Z96	X97	Y97	Z97	X98	Y98	Z98	X99	Y99	Z99	X100	Y100	Z100	X101	Y101	Z101	X102	Y102	Z102	X103	Y103	Z103	X104	Y104	Z104	X105	Y105	Z105	X106	Y106	Z106	X107	Y107	Z107	X108	Y108	Z108	X109	Y109	Z109	X110	Y110	Z110	X111	Y111	Z111	X112	Y112	Z112	X113	Y113	Z113	X114	Y114	Z114	X115	Y115	Z115	X116	Y116	Z116	X117	Y117	Z117	X118	Y118	Z118	X119	Y119	Z119	X120	Y120	Z120	X121	Y121	Z121	X122	Y122	Z122	X123	Y123	Z123	X124	Y124	Z124	X125	Y125	Z125	X126	Y126	Z126	X127	Y127	Z127	X128	Y128	Z128	X129	Y129	Z129	X130	Y130	Z130	X131	Y131	Z131	X132	Y132	Z132	X133	Y133	Z133	X134	Y134	Z134	X135	Y135	Z135	X136	Y136	Z136	X137	Y137	Z137	X138	Y138	Z138	X139	Y139	Z139	X140	Y140	Z140	X141	Y141	Z141	X142	Y142	Z142	X143	Y143	Z143	X144	Y144	Z144	X145	Y145	Z145	X146	Y146	Z146	X147	Y147	Z147	X148	Y148	Z148	X149	Y149	Z149	X150	Y150	Z150	X151	Y151	Z151	X152	Y152	Z152	X153	Y153	Z153	X154	Y154	Z154	X155	Y155	Z155	X156	Y156	Z156	X157	Y157	Z157	X158	Y158	Z158	X159	Y159	Z159	X160	Y160	Z160	X161	Y161	Z161	X162	Y162	Z162	X163	Y163	Z163	

319	3.18	899.5910644531255	892.1396484375005	29.74356651306154	1060.666625976563	877.738647460938	41.2557945251465	911.348999023438	894.4008178710942	-131.9409942626954	913.7921752929692	1053.610229492188	33.03448486328126	950.230590820313	484.437683105469	-24.62934303283693	1354.108276367188	526.7225341796877	-93.26993560791018	884.921020507813	450.4561767578127	-429.8411865234377	902.963256835938	892.694946289063	-51.24798583984378	895.9494628906255	83.22292327880862	26.34902000427248	1279.664184570313	29.62501907348634	13.09187889099122	876.219116210938	37.05026245117189	-358.0521850585939	947.5169067382817	464.3801879882815	-22.08081245422364	1022.881286621094	65.60037994384768	2.921635866165162	1027.34521484375	246.4050292968751	-16.92356109619141	1003.970458984375	46.31813430786134	-177.0079650878907	841.9765625000005	72.07752227783206	21.24084854125977	1083.182739257813	63.44134521484378	-3.184751033782961	1084.670776367188	123.7095565795899	-9.799778938293461	1076.879150390625	57.01396942138675	-63.16127777099612	1022.881225585938	65.60040283203128	2.92160987854004	939.1520385742192	474.1670227050784	153.6256103515626	1347.085083007813	525.7888183593752	247.6783905029298	1037.475341796875	442.2602539062502	-255.3176879882814	896.218872070313	891.584350585938	110.7351455688477	620.6240234375002	250.2907867431642	110.3930969238282	828.3161621093755	-54.21333312988284	157.0114135742188	680.8731689453127	235.3052978515626	-255.9094543457032	922.726684570313	462.6223754882815	151.3962097167969	667.472106933594	136.2600402832032	150.3555297851563	824.112182617188	225.3150177001954	167.4813232421876	702.6983032226565	108.0064010620118	-24.91870117187501	583.9065551757815	291.2799072265626	108.5720214843751	695.3272705078127	84.58675384521487	164.2833862304688	747.5406494140627	114.2717437744141	169.9919586181641	707.0693359375002	75.16885375976565	105.8586349487305	667.472106933594	136.2600250244141	150.3555450439454	893.7999877929692	907.6170043945317	24.09329986572267	1053.486328125	895.0818481445317	34.72534179687501	905.0708007812505	915.5411987304692	-135.8443603515626	905.7640991210942	1067.460571289063	32.85594940185548	943.3579711914067	477.6910095214846	-24.43370056152345	1375.555908203125	520.1832275390627	-62.45523071289065	908.7213745117192	442.4265747070315	-457.5653076171877	898.064086914063	910.1226196289067	-56.01909637451175	899.484985351563	80.43450164794925	23.88890075683594	1284.942993164063	25.41934967041017	-78.42287445068362	791.9231567382817	45.31697082519533	-362.4651489257814	943.357788085938	477.6904907226565	-24.43383407592775	1031.77001953125	67.07550048828128	25.95479965209962	1033.755737304688	251.7165985107423	6.036039352416996	1015.685119628907	47.40144729614259	-158.0214080810547	846.755493164063	70.76768493652347	41.73567962646486	1093.449951171875	65.84480285644534	20.69459915161134	1094.11181640625	127.3917694091797	14.05501937866212	1088.088256835938	59.28679275512698	-40.63073730468751	1031.778564453125	67.0755310058594	25.9548854827881	947.776000976563	469.6520080566409	153.9429931640626	1370.96044921875	538.5811767578127	261.8973999023439	1061.852294921875	436.2681579589846	-271.9238586425782	889.535278320313	905.111206054688	104.2063446044922	626.435974121094	236.1889953613282	113.6060028076172	828.771850585938	-69.59649658203128	271.5504150390626	749.6914672851565	129.5047912597657	-250.8354339599611	947.7758178710942	469.6514282226565	153.942123413086	681.132019042969	112.1340026855469	133.4530029296876	844.2133789062505	207.921844482422	162.6491088867188	729.7991333007815	85.08364105224612	-49.63995361328128	593.6149902343752	275.5849609375001	86.04207611083987	710.3040161132815	57.65050125122073	149.2570037841797	764.6644287109377	89.57974243164065	158.9890289306641	726.5263671875002	48.63372421264651	88.22608184814456	681.1317138671877	112.1340942382813	133.4533843994141	957.9426879882817	978.3827514648442	-96.65420532226568	938.8709106445317	974.7150878906255	165.6022186279297	757.283630371094	994.3822631835942	-30.48066902160646	749.8738403320315	993.545288085938	71.95363616943362	923.9960937500005	642.0669555664065	-113.6105194091797	1010.419128417969	779.1611328125005	-79.35200500488284	1020.624389648438	619.0600585937502	-39.83455657958986	941.0330200195317	479.652038574219	-81.69512939453128	896.9452514648442	241.8696136474611	-59.39373397827151	977.5237426757817	380.3576660156251	6.841958045959476	945.4321899414067	206.7994842529298	29.30652236938478	884.9727172851567	72.61505889892581	-13.85029029846192	846.9829101562505	47.90901184082033	31.0969753265381	1039.55078125	43.72813796997072	16.2898349761963	894.8400268554692	686.7034301757815	221.6292266845704	993.353393554688	776.5251464843755	158.9829864501954	1015.173278808594	609.2667236328127	167.0594635009766	925.7487182617192	478.5164794921877	209.3721923828126	780.0087280273442	382.0365600585939	204.4776306152345	852.0092773437505	349.5369567871095	127.993751525879	736.309509277344	271.3006896972657	122.9311065673829	604.7740478515627	247.5988922119142	150.2745971679688	567.8990478515627	262.2852783203126	93.1045837402344	654.7681884765627	105.1845703125001	138.1216888427735	4.011575222015383	-13.84812831878663	11.95676136016846	1.185845017433167	6.42661809921265	14.61183071136475	0	0	6.305860519409183	-0.5451973676681521	7.764127254486088	6.364449024200443	-6.189967155456547	-8.708372116088871	11.38474178314209	-2.253093719482423	4.054728984832765	61.83946609497073	1.772496938705445	-4.53509044647217	-5.098257541656496	0	0	-5.082254409790041	1.163085222244263	4.072719573974611	5.026156425476076	-1.163085222244263	-4.072719573974611	5.026156425476076	6.293944835662845	-5.778618812561037	-87.9494552612305	5.580568313598635	-13.34717082977296	-28.32749176025392	6.537650108337406	-9.344420433044437	10.76749992370606	1.763679862022401	-10.81149959564209	12.40349960327149	-0.7779529690742497	10.53810024261475	5.787859916687013	-8.710579872131351	-9.806980133056644	12.58580017089844	-3.795680046081545	-11.12110042572022	62.64189910888675	-0.574868977069855	8.236980438232425	-6.168129920959476	-6.179249286651615	-175.1260070800782	-91.14320373535159	-170.9400024414063	14.34389972686768	28.16609764099123	177.1710052490235	4.030980110168459	-175.5160064697266	-177.1710052490235	-4.030980110168459	-175.5160064697266	nan	nan	nan	nan	nan	nan	nan	nan	nan	0	0.1639164239168168	0	0	0.006785087753087286	0	0	0.0289608407765627	0	nan	nan	nan	nan	nan	nan	nan	nan	nan	nan	nan	nan	nan	nan	nan	nan	nan	nan	nan	nan	nan	nan	nan	nan	nan	nan	nan	0.05512712523341182	0.09934039413928991	-0.05983941256999972	0.05293941870331767	0.08718843758106234	-0.01733133383095265	nan	nan	nan	-0.04674750566482545	0.973398089408875	-0.1343561857938767	nan	nan	nan	-0.06001180037856105	1.480340003967286	-0.135904997587204	-0.09199450165033343	0.603300988674164	0.04574149847030641	-0.01819100044667721	0.004817599896341564	0.1446979939937592	0.09917479753494268	1.06578004360199	0.1409779936075211	0.05975230038166049	0.1116579994559289	0.03008910082280637	0.07371550053358081	0.12882499396801	0.07408449798822406	nan	nan	nan	nan	nan	nan	-4.393694152130197e-15	-10.10520076751709	-10.50855827331543	-18.8874626159668	-10.45576667785645	139.345199584961	nan	nan	nan	-40.11438751220705	17.81188011169434	-59.87098312377933	nan	nan	nan	-89.79139709472659	4.15623998641968	-73.50189971923831	-22.65419960021973	-0.5405470132827761	-6.038249969482425	-0.9754089713096623	-0.3400090038776399	-5.448689937591555	-20.37730026245118	24.46450042724611	-71.42220306396487	-36.59299850463869	-7.921909809112552	143.8930053710938	-2.280019998550416	-8.375140190124515	-10.10739994049073	898.0640258789067	910.1229858398442	-56.01919937133792	943.3579711914067	477.6910095214846	-24.43370056152345	889.536010742188	905.1110229492192	104.2060012817383	947.776000976563	469.6520080566409	153.9429931640626	899.484985351563	80.43450164794925	23.88890075683594	626.435974121094	236.1889953613282	113.6060028076172	
320	3.19	911.7571411132817	893.7272338867192	29.36913299560548	1072.896362304688	879.2755737304692	39.88328552246095	922.4552612304692	895.3222045898442	-132.3969116210938	926.0731811523442	1055.201293945313	31.90799140930177	953.655395507813	484.1237792968752	-25.22557830810548	1358.364135742188	518.025817871094	-97.63182067871099	883.8948364257817	451.3505859375002	-430.491638183594	914.5980834960942	893.9502563476567	-51.64443969726565	896.5864257812505	83.33686065673831	26.12507057189943	1279.592041015625	26.38850784301759	7.306015014648441	870.9371948242192	37.77248001098634	-358.0059814453126	950.8025512695317	464.0880126953127	-22.65851783752442	1023.456665039063	65.41265869140628	2.595124006271363	1028.249877929688	246.1616821289064	-17.6753273010254	1004.304016113282	45.74951171875001	-177.2676391601563	842.585815429688	72.28480529785159	21.10380744934083	1083.747192382813	63.1219291687012	-3.574447154998781	1085.344848632813	123.3716049194337	-10.33131980895996	1077.362915039063	56.56748199462893	-63.52868652343753	1023.456848144532	65.41262817382815	2.595191478729249	962.3088989257817	478.0416564941409	153.3015136718751	1369.672607421875	539.394958496094	240.4365844726564	1054.53662109375	447.5690002441409	-256.4147338867189	908.916137695313	893.5041503906255	110.382682800293	650.073913574219	245.5146026611329	111.4428634643555	865.7931518554692	-52.85862731933597	159.8131866455079	710.696716308594	230.0039215087892	-254.5972290039064	946.200805664063	466.0455322265627	151.1419525146485	702.693786621094	134.1768951416016	151.8138427734376	854.6917114257817	231.0819244384767	168.1311645507813	738.895446777344	106.8998184204102	-23.41633605957032	611.3358154296877	284.5949096679689	109.5250549316407	733.146423339844	84.03755187988284	165.9101257324219	783.812377929688	116.3392333984376	171.3492431640626	745.2136230468752	74.94520568847659	107.5000534057618	702.6937255859377	134.1769256591797	151.8138732910157	906.0380249023442	909.245971679688	24.171199798584	1065.796508789063	896.7621459960942	33.72388839721681	916.1183471679692	915.751342773438	-135.9098663330079	918.0997924804692	1069.157592773438	31.4292335510254	946.640014648438	477.7749938964846	-24.96910095214845	1379.19140625	511.6106262207034	-67.4046325683594	906.872680664063	443.4002380371096	-457.7314453125002	909.7051391601567	911.041381835938	-55.98987960815433	899.5869750976567	80.93959808349612	23.81430053710938	1284.060546875	22.55156326293946	-80.31653594970706	789.8672485351567	46.52098464965822	-361.9955444335939	946.6398315429692	477.7751159667971	-24.96920394897462	1031.839965820313	67.2225036621094	25.66539955139162	1034.293701171875	251.8302154541017	5.490690231323244	1015.376708984375	47.3417205810547	-158.2550964355469	846.864379882813	71.44075012207034	41.76715087890626	1093.5	65.8163986206055	20.29820060729981	1094.31787109375	127.3522338867188	13.57330513000489	1088.01220703125	59.18947601318362	-41.00856781005861	1031.841552734375	67.22248077392581	25.6654453277588	971.484008789063	473.5329895019534	153.613998413086	1394.203369140625	552.5330810546877	256.364959716797	1081.129028320313	442.4775085449221	-273.5908813476564	902.3700561523442	907.4511718750005	104.3318939208985	655.9589843750002	232.0729980468751	114.4700012207032	866.360473632813	-68.41262817382815	272.0473022460939	780.723510742188	128.1659545898438	-250.260223388672	971.484008789063	473.5325012207034	153.613998413086	717.2719726562502	111.2139968872071	134.697006225586	875.3401489257817	215.6504821777345	161.7286529541016	765.6962890625002	85.37461090087893	-48.63508605957034	620.8729248046877	269.4814758300782	86.92801666259768	749.4050292968752	58.45849990844729	150.6199951171876	802.094360351563	93.27062988281253	159.6305389404297	765.5464477539065	49.84538269042972	89.5093688964844	717.2720336914065	111.2142639160157	134.6970214843751	969.3274536132817	979.418823242188	-97.74867248535162	951.976196289063	976.8320312500005	164.6183319091797	769.1515502929692	996.0164184570317	-29.5896682739258	762.438659667969	995.1572265625005	72.84559631347659	929.9147949218755	642.4423828125002	-113.835922241211	1019.806762695313	778.2221679687505	-81.04671478271487	1026.764892578125	617.5017089843752	-41.05889892578126	943.8474121093755	479.5159912109377	-82.20426940917972	897.747680664063	242.1144866943361	-59.48667907714847	979.8043823242192	379.9298400878907	6.248615264892582	946.575805664063	206.6946105957032	29.02202606201173	884.9411621093755	72.87111663818362	-13.92312812805176	847.0217285156255	48.20241546630862	31.2797031402588	1039.582275390625	43.68237304687501	16.03173828125001	913.9647827148442	689.8958740234377	221.9858398437501	1009.288696289063	781.125854492188	157.4834289550782	1035.497924804688	615.0758056640627	165.6389617919922	949.7145996093755	482.2028503417971	209.2507476806642	806.189331054688	382.2747802734376	204.6238861083986	878.553344726563	351.3003540039064	127.9935379028321	765.1975708007815	270.3551330566407	123.3367080688477	634.299987792969	242.6319274902345	151.3411712646485	595.944274902344	255.0227203369142	94.10940551757815	691.3858642578127	102.9826736450196	139.6494293212891	3.866036415100099	-13.95845890045167	10.79138374328614	1.257519483566285	6.184753894805912	13.88985443115235	0	0	6.58800029754639	-0.7924804687500004	8.561393737792972	6.662581443786625	-5.914230346679689	-8.16123199462891	12.81302738189698	-1.5851788520813	3.363075494766237	61.69795989990237	1.642604589462281	-4.242809295654299	-3.797571182250978	0	0	-3.787145614624025	0.8972546458244328	3.718791723251345	5.066526889801027	-0.8972546458244328	-3.718791723251345	5.066526889801027	6.430077552795414	-5.83861827850342	-87.82411193847659	5.320005893707277	-13.51162147521973	-31.27284049987794	6.079860210418705	-9.406530380249027	9.600540161132816	1.828309893608094	-10.43869972229004	11.79289913177491	-0.9051289558410649	10.74379920959473	6.107190132141117	-8.111809730529789	-9.56282997131348	13.94130039215089	-3.369349718093874	-11.4286003112793	62.62080001831058	-0.7500230073928837	8.315349578857425	-4.498129844665529	-6.259839534759525	-175.0260009765626	-91.3063888549805	-171.6119995117188	14.45459938049317	31.34519958496095	177.6770019531251	3.603130102157595	-175.5359954833985	-177.6770019531251	-3.603130102157595	-175.5359954833985	nan	nan	nan	nan	nan	nan	nan	nan	nan	0	0.09204571694135669	0	0	0.08475261926651004	0	0	0.0262195970863104	0	nan	nan	nan	nan	nan	nan	nan	nan	nan	nan	nan	nan	nan	nan	nan	nan	nan	nan	nan	nan	nan	nan	nan	nan	nan	nan	nan	0.0430964194238186	0.07507708668708804	-0.06704684346914294	0.04406939074397088	0.1036042347550393	-0.0577155835926533	nan	nan	nan	-0.05586706474423411	0.9638056755065922	-0.1300371438264847	nan	nan	nan	-0.06828279793262484	1.473080039024353	-0.1565549969673157	-0.09301079809665683	0.6050149798393252	0.03964290022850038	-0.01814679987728596	0.003214870113879444	0.1467400044202805	0.06915680319070819	1.016350030899048	0.1448439955711365	0.041966300457716	0.1051909998059273	0.04185570031404497	0.06283389776945117	0.1121969968080521	0.06816879659891131	nan	nan	nan	nan	nan	nan	-0	-7.322346687316898	-10.67511940002442	-16.75498580932618	-7.659854888916019	117.1098861694337	nan	nan	nan	-28.22081565856935	15.62475299835206	-35.5327491760254	nan	nan	nan	-90.05609893798831	3.964750051498415	-78.11260223388675	-23.2908000946045	-0.5503219962120058	-8.203060150146488	-0.9999920129776005	-0.3337010145187379	-5.460450172424318	-7.183269977569584	21.91959953308106	-47.72409820556642	-31.31200027465822	-5.22913980484009	128.3809967041016	-1.952180027961732	-5.505430221557619	-9.125579833984379	909.7050170898442	911.0419921875005	-55.98989868164065	946.640014648438	477.7749938964846	-24.96910095214845	902.369995117188	907.4509887695317	104.3320007324219	971.484008789063	473.5329895019534	153.613998413086	899.5869750976567	80.93959808349612	23.81430053710938	655.9589843750002	232.0729980468751	114.4700012207032	
